# xmcd
#
# Track frame offsets: 
#        150
#        24003
#        44440
#
# Disc length: 881 seconds
#
# Revision: 0
# Processed by: cddbd v1.5.2PL0 Copyright (c) Steve Scherf et al.
# Submitted via: ExactAudioCopy v1.0b3
#
DISCID=17036f03
DTITLE=Moodscan - Computer Lover
DYEAR=1900
DGENRE=
TTITLE0=Computer Lover (Hardlove Mix)
TTITLE1=Computer Lover (Floppy Love Mix)
TTITLE2=Computer Lover (Softlove Mix)
EXTD=
EXTT0=
EXTT1=
EXTT2=
PLAYORDER=
